# xmcd
# 
# Track frame offsets:
#     150
#     15130
#     34545
#     52830
#     71015
#     86765
#     105502
#     121780
#     140355
#     158322
#     172830
#     185240
#     198900
#     213512
#     231420
#     253560
#     273077
# 
# Disc length: 3846
# 
# Revision: 7
# Processed by: cddbd v1.5.2PL0 Copyright (c) Steve Scherf et al.
# Submitted via: BonkEnc v1.0.15
# 
DISCID=d30f0411
DTITLE=鐘鎮濤 - 88極品音色
DYEAR=1997
DGENRE=Pop
TTITLE0=閃閃星辰
TTITLE1=今天我非常寂寞(1987)
TTITLE2=要是有緣
TTITLE3=讓一切隨風
TTITLE4=兩點水
TTITLE5=痴心的一句
TTITLE6=夢裡嫣红
TTITLE7=一段情
TTITLE8=情變
TTITLE9=讓我坦蕩蕩
TTITLE10=不可以不想你
TTITLE11=淚之旅
TTITLE12=活在纪念中
TTITLE13=愛情组曲
TTITLE14=誠懇
TTITLE15=非洲黑森林寫真集一日遊
TTITLE16=香腸蚊帳機關槍
EXTD=YEAR: 1997
EXTT0=
EXTT1=
EXTT2=
EXTT3=
EXTT4=
EXTT5=
EXTT6=
EXTT7=
EXTT8=
EXTT9=
EXTT10=
EXTT11=
EXTT12=
EXTT13=
EXTT14=
EXTT15=
EXTT16=
PLAYORDER=
